<svg width="200" height="200" viewBox="0 0 200 200" fill="none" xmlns="http://www.w3.org/2000/svg">
<rect width="200" height="200" fill="white"/>
<g opacity="0.5">
<path d="M134.717 57.4317C125.581 44.7561 107.536 40.999 94.4891 49.0568L71.5753 63.2129C68.4799 65.1006 65.8248 67.5935 63.7799 70.5324C61.7349 73.4713 60.345 76.7914 59.6991 80.2806C58.6061 86.1579 59.5668 92.2208 62.4292 97.5092C60.4678 100.393 59.1301 103.633 58.4968 107.032C57.844 110.592 57.9311 114.242 58.7528 117.768C59.5746 121.294 61.1145 124.626 63.2823 127.568C72.4207 140.245 90.4652 144 103.51 135.943L126.424 121.787C129.52 119.9 132.175 117.407 134.22 114.468C136.265 111.529 137.655 108.209 138.3 104.719C139.393 98.842 138.433 92.7793 135.572 87.4903C137.533 84.6063 138.87 81.3669 139.503 77.9677C140.156 74.4083 140.069 70.7582 139.247 67.2318C138.426 63.7053 136.886 60.3734 134.717 57.4317" fill="#FF3E00"/>
<path d="M92.2505 128.761C88.6446 129.67 84.8378 129.484 81.3443 128.229C77.8507 126.973 74.8388 124.709 72.7151 121.742C71.4113 119.973 70.485 117.969 69.9907 115.848C69.4964 113.728 69.444 111.533 69.8366 109.392C69.9696 108.689 70.1525 107.996 70.3842 107.318L70.8157 106.042L71.9897 106.878C74.7008 108.809 77.7322 110.277 80.9531 111.219L81.8047 111.47L81.7262 112.294C81.6222 113.466 81.9496 114.636 82.6504 115.596C83.2895 116.49 84.1962 117.172 85.248 117.551C86.2999 117.929 87.4462 117.985 88.5322 117.712C89.0302 117.583 89.5048 117.381 89.9396 117.113L112.854 102.958C113.415 102.616 113.896 102.164 114.266 101.632C114.637 101.099 114.889 100.498 115.007 99.866C115.124 99.2208 115.108 98.5594 114.959 97.9203C114.81 97.2812 114.532 96.6772 114.139 96.1437C113.5 95.2496 112.593 94.5672 111.541 94.1886C110.488 93.81 109.342 93.7533 108.255 94.0263C107.758 94.1554 107.284 94.3574 106.85 94.6255L98.1058 100.029C96.6679 100.915 95.0988 101.583 93.4528 102.009C89.8469 102.918 86.0401 102.732 82.5466 101.477C79.0531 100.222 76.0412 97.9575 73.9176 94.9901C72.6137 93.221 71.6874 91.2174 71.1931 89.0967C70.6988 86.976 70.6465 84.7809 71.0391 82.6404C71.4275 80.5422 72.2633 78.5457 73.4931 76.7786C74.723 75.0115 76.3198 73.5126 78.1814 72.3779L101.094 58.2222C102.532 57.3346 104.102 56.6658 105.75 56.2392C109.356 55.3304 113.162 55.5162 116.656 56.7714C120.149 58.0267 123.161 60.2909 125.285 63.2583C126.589 65.0273 127.515 67.031 128.009 69.1517C128.504 71.2724 128.556 73.4675 128.163 75.6081C128.03 76.3107 127.847 77.0037 127.616 77.6822L127.184 78.9577L126.011 78.1232C123.3 76.1911 120.268 74.7223 117.047 73.7802L116.195 73.5297L116.274 72.7058C116.377 71.5338 116.05 70.3642 115.35 69.4034C114.71 68.5095 113.804 67.8273 112.752 67.4489C111.7 67.0705 110.554 67.0141 109.468 67.2873C108.97 67.4163 108.495 67.6185 108.06 67.8869L85.146 82.042C84.5854 82.3839 84.1045 82.8354 83.7341 83.3677C83.3637 83.8999 83.1119 84.5012 82.9948 85.1331C82.8765 85.7783 82.8921 86.4398 83.0408 87.0791C83.1895 87.7183 83.4682 88.3224 83.8606 88.8559C84.5001 89.75 85.4072 90.4324 86.4594 90.811C87.5116 91.1896 88.6582 91.2462 89.7447 90.9732C90.2425 90.8439 90.7171 90.6418 91.1521 90.3736L99.8948 84.9726C101.332 84.0853 102.901 83.4168 104.547 82.9903C108.153 82.0815 111.96 82.2673 115.453 83.5226C118.947 84.7778 121.959 87.0421 124.082 90.0095C125.386 91.7785 126.313 93.7822 126.807 95.9029C127.301 98.0236 127.354 100.219 126.961 102.359C126.572 104.457 125.736 106.454 124.507 108.221C123.277 109.989 121.68 111.488 119.819 112.623L96.9063 126.778C95.4678 127.665 93.8976 128.334 92.2502 128.761" fill="white"/>
</g>
<path d="M57.872 105.432C55.736 105.432 53.876 104.916 52.292 103.884C50.732 102.828 49.664 101.472 49.088 99.816L52.04 98.736C52.568 99.888 53.348 100.8 54.38 101.472C55.412 102.144 56.6 102.48 57.944 102.48C59.48 102.48 60.692 102.12 61.58 101.4C62.468 100.656 62.912 99.6 62.912 98.232C62.912 96.912 62.408 95.856 61.4 95.064C60.416 94.272 59.024 93.552 57.224 92.904C56.36 92.592 55.64 92.316 55.064 92.076C54.512 91.836 53.864 91.5 53.12 91.068C52.4 90.612 51.824 90.156 51.392 89.7C50.96 89.22 50.588 88.632 50.276 87.936C49.988 87.216 49.844 86.436 49.844 85.596C49.844 83.844 50.54 82.368 51.932 81.168C53.324 79.968 55.208 79.368 57.584 79.368C59.528 79.368 61.148 79.788 62.444 80.628C63.74 81.444 64.58 82.524 64.964 83.868L62.084 84.84C61.748 84.096 61.172 83.484 60.356 83.004C59.54 82.524 58.544 82.284 57.368 82.284C56.048 82.284 55.004 82.584 54.236 83.184C53.468 83.76 53.084 84.564 53.084 85.596C53.084 86.148 53.216 86.652 53.48 87.108C53.768 87.564 54.2 87.972 54.776 88.332C55.376 88.692 55.928 88.98 56.432 89.196C56.936 89.412 57.632 89.688 58.52 90.024C59.624 90.432 60.536 90.828 61.256 91.212C61.976 91.572 62.756 92.064 63.596 92.688C64.436 93.312 65.072 94.092 65.504 95.028C65.936 95.94 66.152 96.984 66.152 98.16C66.152 100.416 65.384 102.192 63.848 103.488C62.312 104.784 60.32 105.432 57.872 105.432ZM97.7108 105H94.6868L83.3468 87C82.9148 86.304 82.5788 85.716 82.3388 85.236C82.3868 85.956 82.4108 86.544 82.4108 87V105H79.2788V79.8H82.4468L93.6068 97.728C93.9908 98.352 94.3388 98.976 94.6508 99.6C94.6028 98.736 94.5788 98.124 94.5788 97.764V79.8H97.7108V105ZM111.967 105V79.8H126.943V82.752H115.099V90.492H122.911V93.444H115.099V102.012H127.735V105H111.967ZM140.718 105V79.8H143.85V101.976H156.234V105H140.718Z" fill="#302E2E"/>
</svg>
